<?xml version="1.0" standalone="no"?>
<!DOCTYPE svg PUBLIC "-//W3C//DTD SVG 20010904//EN"
 "http://www.w3.org/TR/2001/REC-SVG-20010904/DTD/svg10.dtd">
<svg version="1.0" xmlns="http://www.w3.org/2000/svg"
 width="100.000000pt" height="100.000000pt" viewBox="0 0 100.000000 100.000000"
 preserveAspectRatio="xMidYMid meet">
<metadata>
Created by potrace 1.10, written by Peter Selinger 2001-2011
</metadata>
<g transform="translate(0.000000,100.000000) scale(0.100000,-0.100000)"
fill="#000000" stroke="none">
<path d="M214 876 l-34 -34 0 -342 0 -342 34 -34 35 -35 256 3 257 3 29 33 29
32 0 341 0 341 -34 34 -34 34 -252 0 -252 0 -34 -34z m558 -14 l23 -23 0 -339
0 -339 -23 -23 c-22 -23 -26 -23 -272 -23 -246 0 -250 0 -272 23 -23 22 -23
24 -26 358 l-3 335 30 30 30 30 245 -3 c240 -3 246 -3 268 -26z"/>
<path d="M272 817 c-22 -23 -22 -29 -22 -318 l0 -296 23 -21 c22 -21 32 -22
228 -22 202 0 206 0 227 23 20 21 22 33 20 128 l-2 104 -5 -103 c-8 -147 0
-142 -243 -142 -187 0 -189 0 -213 25 l-25 24 0 276 c0 170 4 284 10 295 6 11
23 26 38 34 24 13 24 15 6 16 -11 0 -30 -10 -42 -23z"/>
<path d="M360 750 c-22 -22 -26 -51 -10 -80 8 -15 6 -24 -10 -40 -22 -22 -40
-61 -40 -88 0 -15 13 -17 105 -17 92 0 105 2 105 17 0 27 -18 66 -40 88 -16
16 -18 25 -10 40 24 45 -6 100 -55 100 -14 0 -34 -9 -45 -20z m80 -10 c11 -11
20 -27 20 -35 0 -19 -36 -55 -55 -55 -19 0 -55 36 -55 55 0 19 36 55 55 55 8
0 24 -9 35 -20z m5 -106 c17 -7 45 -54 45 -76 0 -10 -22 -13 -85 -13 -63 0
-85 3 -85 13 0 20 28 70 42 75 19 8 64 8 83 1z"/>
<path d="M578 743 c23 -2 61 -2 85 0 23 2 4 4 -43 4 -47 0 -66 -2 -42 -4z"/>
<path d="M578 673 c23 -2 61 -2 85 0 23 2 4 4 -43 4 -47 0 -66 -2 -42 -4z"/>
<path d="M578 603 c23 -2 61 -2 85 0 23 2 4 4 -43 4 -47 0 -66 -2 -42 -4z"/>
<path d="M578 533 c23 -2 61 -2 85 0 23 2 4 4 -43 4 -47 0 -66 -2 -42 -4z"/>
<path d="M398 463 c56 -2 148 -2 205 0 56 1 10 3 -103 3 -113 0 -159 -2 -102
-3z"/>
<path d="M333 393 c20 -2 54 -2 75 0 20 2 3 4 -38 4 -41 0 -58 -2 -37 -4z"/>
<path d="M518 393 c34 -2 90 -2 125 0 34 2 6 3 -63 3 -69 0 -97 -1 -62 -3z"/>
<path d="M343 323 c26 -2 67 -2 90 0 23 2 2 3 -48 3 -49 0 -68 -1 -42 -3z"/>
<path d="M518 323 c18 -2 45 -2 60 0 15 2 0 4 -33 4 -33 0 -45 -2 -27 -4z"/>
<path d="M358 253 c34 -2 90 -2 125 0 34 2 6 3 -63 3 -69 0 -97 -1 -62 -3z"/>
<path d="M593 253 c20 -2 54 -2 75 0 20 2 3 4 -38 4 -41 0 -58 -2 -37 -4z"/>
</g>
</svg>
